# xmcd CD database file
#
# Track frame offsets:
#	150
#	15986
#	47292
#	66992
#	86562
#	93153
#	113411
#	124463
#	140810
#	155335
#
# Disc length: 2179 seconds
#
# Revision: 0
# Processed by: cddbd v1.5.2PL0 Copyright (c) Steve Scherf et al.
# Submitted via: CDex 1.51
#
DISCID=7808810a
DTITLE=Jean-Claude Camors - Strates
DYEAR=1988
DGENRE=Jazz
TTITLE0=Sequenza
TTITLE1=Olo-Oa 
TTITLE2=Récital
TTITLE3=Elipse
TTITLE4=Un Siphon 
TTITLE5=Bulzeboules
TTITLE6=Sequenza Au Bain 
TTITLE7=Oupam
TTITLE8=Strates
TTITLE9=Pickup
EXTD=YEAR: 1988
EXTT0=
EXTT1=
EXTT2=
EXTT3=
EXTT4=
EXTT5=
EXTT6=
EXTT7=
EXTT8=
EXTT9=
PLAYORDER=
